<?xml version="1.0" encoding="UTF-8"?>
<svg version="1.1" xmlns="http://www.w3.org/2000/svg" width="1000" height="1000">
<path d="M0 0 C1.11832718 -0.00392761 1.11832718 -0.00392761 2.25924683 -0.00793457 C21.77747997 -0.01521973 40.79116362 2.59755145 59.70703125 7.4453125 C62.94965675 8.2389871 66.13785254 8.82078783 69.4375 9.3125 C76.22431118 10.37438202 82.68999989 12.30461737 89.25 14.3125 C89.92708008 14.51810547 90.60416016 14.72371094 91.30175781 14.93554688 C104.33411658 18.9000832 104.33411658 18.9000832 109.625 20.9375 C115.54841262 23.18431168 121.53774429 25.00097504 127.75 26.25 C131.8816376 27.1312234 135.62019164 28.54775513 139.51171875 30.17578125 C142.58904278 31.45324386 145.69620187 32.63345822 148.8125 33.8125 C153.29363248 35.52834347 157.68933212 37.35046593 162.0546875 39.33984375 C165.3258381 40.78916136 168.65507654 42.08388248 171.98828125 43.3828125 C174.25 44.3125 174.25 44.3125 176.35546875 45.4296875 C178.35485733 46.52368692 178.35485733 46.52368692 181.25 46.3125 C183.15664544 47.24909776 185.06073976 48.19162105 186.9453125 49.171875 C190.13197877 50.74900475 193.41856803 52.01084207 196.7265625 53.30859375 C202.49763325 55.60451508 207.93510201 58.09558806 213.25 61.3125 C214.93275423 62.05679514 216.61696387 62.79854629 218.31640625 63.50390625 C220.37337348 64.36409255 222.4045264 65.27211044 224.4375 66.1875 C228.05382302 67.80711817 231.70496962 69.31882971 235.375 70.8125 C239.9050493 72.68360732 244.07547231 74.75085801 248.25 77.3125 C247.92 79.6225 247.59 81.9325 247.25 84.3125 C246.59 84.3125 245.93 84.3125 245.25 84.3125 C245.146875 85.158125 245.04375 86.00375 244.9375 86.875 C244.1671146 90.72692701 242.88725486 93.75325031 241.25 97.3125 C240.528125 96.838125 239.80625 96.36375 239.0625 95.875 C236.41917322 94.21660895 236.41917322 94.21660895 233.84375 93.84375 C231.20618763 93.30352638 229.31427377 92.4953788 226.9375 91.25 C226.07511719 90.8065625 225.21273438 90.363125 224.32421875 89.90625 C223.30972656 89.3803125 222.29523438 88.854375 221.25 88.3125 C209.56804377 82.30978862 209.56804377 82.30978862 197.48828125 77.17578125 C192.48998958 75.24799336 187.62930309 73.02769419 182.875 70.5625 C180.28314071 69.09753321 180.28314071 69.09753321 177.25 69.3125 C175.41015625 68.61328125 175.41015625 68.61328125 173.3125 67.625 C165.14806028 63.87412916 156.81764946 60.52281252 148.46875 57.20703125 C146.61297806 56.45884151 144.77303318 55.67155214 142.9375 54.875 C134.96133138 51.45126724 127.21047801 48.30761036 118.6328125 46.83203125 C115.2065169 46.08498647 112.12339745 44.72557693 108.8984375 43.37109375 C104.49820393 41.61229833 99.96714726 40.32047321 95.42773438 38.97216797 C92.78333473 38.17114018 90.14999349 37.33732309 87.515625 36.50390625 C85.44793798 35.85670274 83.3802295 35.20956778 81.3125 34.5625 C80.31710205 34.24434326 79.3217041 33.92618652 78.29614258 33.59838867 C73.4006491 32.0797545 69.40594291 31.16581599 64.25 31.3125 C61.90456466 30.68974648 59.57128907 30.01996446 57.25 29.3125 C54.71372308 28.76602384 52.17175645 28.24534672 49.625 27.75 C48.35398438 27.50121094 47.08296875 27.25242188 45.7734375 26.99609375 C44.61070312 26.77050781 43.44796875 26.54492188 42.25 26.3125 C39.75845821 25.81566375 37.26753785 25.31604636 34.77734375 24.8125 C33.92269531 24.6475 33.06804687 24.4825 32.1875 24.3125 C31.35089844 24.1475 30.51429688 23.9825 29.65234375 23.8125 C19.43252521 22.31062081 9.18959551 22.10294939 -1.125 22.0625 C-3.08566406 22.0315625 -3.08566406 22.0315625 -5.0859375 22 C-16.8957911 21.9531355 -27.82835205 23.77898576 -38.75 28.3125 C-40.235 28.8075 -40.235 28.8075 -41.75 29.3125 C-41.75 29.9725 -41.75 30.6325 -41.75 31.3125 C-47.22619048 36.3125 -47.22619048 36.3125 -49.75 36.3125 C-54.86758356 51.29970899 -55.55526053 64.4595759 -49.75 79.3125 C-48.77033353 80.99119931 -47.7710349 82.65863618 -46.75 84.3125 C-45.98235764 86.02493295 -45.25171231 87.75452362 -44.5625 89.5 C-44.21832031 90.35980469 -43.87414062 91.21960938 -43.51953125 92.10546875 C-42.75 94.3125 -42.75 94.3125 -42.75 96.3125 C-42.09 96.6425 -41.43 96.9725 -40.75 97.3125 C-39.6796875 98.87109375 -39.6796875 98.87109375 -38.625 100.75 C-38.27179688 101.36746094 -37.91859375 101.98492187 -37.5546875 102.62109375 C-36.75 104.3125 -36.75 104.3125 -36.75 106.3125 C-36.09 106.6425 -35.43 106.9725 -34.75 107.3125 C-33.4609375 109.30859375 -33.4609375 109.30859375 -32.125 111.75 C-31.67898437 112.55308594 -31.23296875 113.35617187 -30.7734375 114.18359375 C-29.75 116.3125 -29.75 116.3125 -29.75 118.3125 C-29.09 118.3125 -28.43 118.3125 -27.75 118.3125 C-27.09 120.2925 -26.43 122.2725 -25.75 124.3125 C-25.09 124.3125 -24.43 124.3125 -23.75 124.3125 C-22.49609375 125.95703125 -22.49609375 125.95703125 -21.1875 128.125 C-20.75308594 128.83269531 -20.31867188 129.54039062 -19.87109375 130.26953125 C-18.75 132.3125 -18.75 132.3125 -17.75 135.3125 C-17.09 135.3125 -16.43 135.3125 -15.75 135.3125 C-15.75 135.9725 -15.75 136.6325 -15.75 137.3125 C-15.09 137.3125 -14.43 137.3125 -13.75 137.3125 C-13.46125 138.116875 -13.1725 138.92125 -12.875 139.75 C-12.01737432 142.4451468 -12.01737432 142.4451468 -9.75 143.3125 C-8.52581058 144.73520663 -7.30603997 146.16236879 -6.125 147.62109375 C-5.2050305 148.75276078 -4.26717555 149.87010976 -3.3125 150.97265625 C0.25 155.09179688 0.25 155.09179688 0.25 157.3125 C0.91 157.3125 1.57 157.3125 2.25 157.3125 C2.518125 158.116875 2.78625 158.92125 3.0625 159.75 C3.454375 160.595625 3.84625 161.44125 4.25 162.3125 C5.24 162.6425 6.23 162.9725 7.25 163.3125 C7.806875 164.17875 8.36375 165.045 8.9375 165.9375 C9.700625 166.72125 10.46375 167.505 11.25 168.3125 C18.47749996 168.02802276 25.51114693 165.89850454 32.52005005 164.21844482 C94.28047076 149.51346201 162.65817962 137.58341727 226.25 139.3125 C225.59 141.9525 224.93 144.5925 224.25 147.3125 C223.59 147.3125 222.93 147.3125 222.25 147.3125 C222.146875 148.34375 222.04375 149.375 221.9375 150.4375 C220.74211996 157.17509659 220.74211996 157.17509659 218.25 160.3125 C213.95163855 161.54311526 209.5916555 161.74184136 205.14453125 162.03515625 C203.80093285 162.14453548 202.45755354 162.25663607 201.11439514 162.37129211 C198.25488396 162.61061531 195.39476188 162.83311963 192.53289795 163.04241943 C188.03951799 163.37220018 183.55026781 163.74377081 179.06103516 164.12548828 C178.31834129 164.18852898 177.57564743 164.25156967 176.81044769 164.31652069 C175.31539205 164.44347198 173.82034603 164.57053662 172.32530975 164.69771576 C170.09039029 164.88667254 167.85521344 165.07225015 165.61993408 165.25689697 C124.38753273 168.67506845 83.31682484 175.2028597 42.94360352 184.22998047 C41.71053467 184.50471191 40.47746582 184.77944336 39.20703125 185.0625 C38.14460205 185.30484375 37.08217285 185.5471875 35.98754883 185.796875 C33.25 186.3125 33.25 186.3125 29.25 186.3125 C29.58 187.6325 29.91 188.9525 30.25 190.3125 C30.8275 190.374375 31.405 190.43625 32 190.5 C35.1536885 191.63883196 36.21248151 193.67571136 38.25 196.3125 C39.24 197.1375 40.23 197.9625 41.25 198.8125 C44.05221884 201.14768237 45.98520772 203.48150965 48.25 206.3125 C49.219375 207.116875 50.18875 207.92125 51.1875 208.75 C53.47269841 210.66210479 55.11026573 212.23246831 56.9375 214.5 C59.12671725 217.44004755 59.12671725 217.44004755 62.25 219.3125 C62.25 219.9725 62.25 220.6325 62.25 221.3125 C63.57 221.9725 64.89 222.6325 66.25 223.3125 C66.25 223.9725 66.25 224.6325 66.25 225.3125 C66.9925 225.395 67.735 225.4775 68.5 225.5625 C71.79302595 226.46059799 73.10976788 227.69666074 75.25 230.3125 C75.25 230.9725 75.25 231.6325 75.25 232.3125 C76.3328125 232.6528125 76.3328125 232.6528125 77.4375 233 C80.81432417 234.57585128 82.80767039 236.52126616 85.25 239.3125 C85.25 239.9725 85.25 240.6325 85.25 241.3125 C86.9 241.9725 88.55 242.6325 90.25 243.3125 C90.25 243.9725 90.25 244.6325 90.25 245.3125 C91.054375 245.580625 91.85875 245.84875 92.6875 246.125 C93.533125 246.516875 94.37875 246.90875 95.25 247.3125 C95.58 248.3025 95.91 249.2925 96.25 250.3125 C97.075 250.6425 97.9 250.9725 98.75 251.3125 C99.575 251.6425 100.4 251.9725 101.25 252.3125 C101.58 253.3025 101.91 254.2925 102.25 255.3125 C102.7346875 254.94898438 103.219375 254.58546875 103.71875 254.2109375 C105.12666722 253.15499958 106.53559129 252.10040331 107.9453125 251.046875 C109.46850291 249.90060968 110.9843277 248.74448345 112.4921875 247.578125 C113.54792969 246.76601563 113.54792969 246.76601563 114.625 245.9375 C115.27210938 245.43476563 115.91921875 244.93203125 116.5859375 244.4140625 C118.25 243.3125 118.25 243.3125 120.25 243.3125 C120.58 242.3225 120.91 241.3325 121.25 240.3125 C125.58333333 237.3125 125.58333333 237.3125 128.25 237.3125 C128.58 236.3225 128.91 235.3325 129.25 234.3125 C130.97936869 233.30098246 132.71290226 232.29474462 134.48046875 231.3515625 C136.77743526 230.00279188 138.40456116 228.21945347 140.25 226.3125 C144.75 223.3125 144.75 223.3125 147.25 223.3125 C147.58 222.3225 147.91 221.3325 148.25 220.3125 C150.2109375 219.03125 150.2109375 219.03125 152.625 217.8125 C155.71115312 216.2442919 157.82629154 214.74863774 160.25 212.3125 C162.75067511 210.73312624 165.3072624 209.27977863 167.875 207.8125 C170.20667542 206.46699392 170.20667542 206.46699392 171.6640625 204.87109375 C174.0256802 202.5501936 176.78681897 201.06686764 179.625 199.375 C182.77053701 197.49852448 185.77932596 195.69696147 188.6171875 193.37890625 C192.88595162 190.02849643 197.6505924 187.5194782 202.36328125 184.84765625 C203.10449219 184.42097656 203.84570312 183.99429688 204.609375 183.5546875 C205.28452148 183.1716748 205.95966797 182.78866211 206.65527344 182.39404297 C208.41481371 181.39056244 208.41481371 181.39056244 209.25 179.3125 C210.24 179.3125 211.23 179.3125 212.25 179.3125 C212.25 179.9725 212.25 180.6325 212.25 181.3125 C211.59 181.3125 210.93 181.3125 210.25 181.3125 C209.94255859 182.68535156 209.94255859 182.68535156 209.62890625 184.0859375 C209.22478516 185.86871094 209.22478516 185.86871094 208.8125 187.6875 C208.54566406 188.87085938 208.27882813 190.05421875 208.00390625 191.2734375 C207.25 194.3125 207.25 194.3125 206.25 196.3125 C205.59 196.3125 204.93 196.3125 204.25 196.3125 C204.146875 197.488125 204.04375 198.66375 203.9375 199.875 C203.37588197 204.21407626 202.36377383 207.46241195 200.25 211.3125 C196.28225806 214.3125 196.28225806 214.3125 193.25 214.3125 C192.92 215.3025 192.59 216.2925 192.25 217.3125 C190.18691247 218.73160117 188.16434894 220.00680175 186 221.25 C181.83104225 223.68111131 177.99917883 226.26350737 174.25 229.3125 C173.08159168 230.01208752 171.89588257 230.6844775 170.6875 231.3125 C167.59533483 233.11157792 165.70054085 234.78027445 163.25 237.3125 C158.75 240.3125 158.75 240.3125 156.25 240.3125 C155.92 241.3025 155.59 242.2925 155.25 243.3125 C153.50046568 244.34926108 151.74661559 245.38112825 149.953125 246.33984375 C148.04758911 247.42809705 146.76072373 248.733107 145.25 250.3125 C140.69444444 253.3125 140.69444444 253.3125 138.25 253.3125 C137.92 254.3025 137.59 255.2925 137.25 256.3125 C132.91666667 259.3125 132.91666667 259.3125 130.25 259.3125 C129.92 260.3025 129.59 261.2925 129.25 262.3125 C128.280625 262.951875 127.31125 263.59125 126.3125 264.25 C123.39475815 266.21500982 122.39885011 267.0957197 121.25 270.3125 C122.178125 270.745625 123.10625 271.17875 124.0625 271.625 C126.82517665 273.08759352 128.16371414 274.13550606 130.25 276.3125 C131.425625 276.993125 131.425625 276.993125 132.625 277.6875 C135.6480302 279.55889965 137.73396392 281.79646392 140.25 284.3125 C144.13145451 287.48761208 148.07711426 290.53057617 152.25 293.3125 C152.25 293.9725 152.25 294.6325 152.25 295.3125 C152.95125 295.56 153.6525 295.8075 154.375 296.0625 C158.73962529 297.96016317 163.32134796 300.47371301 166.25 304.3125 C166.10546875 306.57421875 166.10546875 306.57421875 165.4375 309 C165.22480469 309.80824219 165.01210938 310.61648438 164.79296875 311.44921875 C164.61378906 312.06410156 164.43460937 312.67898438 164.25 313.3125 C163.59 313.3125 162.93 313.3125 162.25 313.3125 C161.59 316.6125 160.93 319.9125 160.25 323.3125 C156.25 323.3125 156.25 323.3125 153.25 321.3125 C153.25 320.6525 153.25 319.9925 153.25 319.3125 C152.528125 319.065 151.80625 318.8175 151.0625 318.5625 C147.97393418 317.18980408 145.73988582 315.58896704 143.25 313.3125 C143.25 312.6525 143.25 311.9925 143.25 311.3125 C142.528125 311.065 141.80625 310.8175 141.0625 310.5625 C137.01130621 308.76196943 134.03861994 305.98571215 130.6875 303.125 C128.40910937 301.4308121 127.01588555 300.72226082 124.25 300.3125 C124.25 299.6525 124.25 298.9925 124.25 298.3125 C123.569375 298.10625 122.88875 297.9 122.1875 297.6875 C118.26308421 295.85053942 115.44972056 293.19366431 112.25 290.3125 C107.69584662 286.06905082 107.69584662 286.06905082 102.25 283.3125 C99.68527142 284.11397768 98.33458155 285.22791845 96.4375 287.125 C94.10431373 289.45818627 91.65430959 291.21825852 88.93359375 293.06640625 C87.1848634 294.28829706 87.1848634 294.28829706 85.66015625 295.96484375 C84.25 297.3125 84.25 297.3125 82.25 297.3125 C81.92 298.3025 81.59 299.2925 81.25 300.3125 C79.58333333 300.97916667 77.91666667 301.64583333 76.25 302.3125 C75.92 303.3025 75.59 304.2925 75.25 305.3125 C73.62251976 306.69339233 71.94443347 308.01463607 70.25 309.3125 C68.19343805 311.13654618 66.15176008 312.97568685 64.1171875 314.82421875 C62.25 316.3125 62.25 316.3125 59.25 317.3125 C59.25 317.9725 59.25 318.6325 59.25 319.3125 C53.77380952 324.3125 53.77380952 324.3125 51.25 324.3125 C50.92 325.3025 50.59 326.2925 50.25 327.3125 C47.54438476 329.7776161 45.22134628 331.83995316 41.9375 333.4375 C39.88229657 334.25455557 39.88229657 334.25455557 39.25 337.3125 C38.59 337.3125 37.93 337.3125 37.25 337.3125 C36.92 338.3025 36.59 339.2925 36.25 340.3125 C34.59211215 341.65673339 32.92423683 342.98868483 31.25 344.3125 C29.88755204 345.95545195 28.55135125 347.62074337 27.25 349.3125 C26.26080987 350.32319426 25.26279159 351.32545735 24.25 352.3125 C62.45343349 361.89511895 101.24068322 368.07586422 140.25 373.3125 C140.58 374.3025 140.91 375.2925 141.25 376.3125 C140.59 376.3125 139.93 376.3125 139.25 376.3125 C139.12882812 376.88097656 139.00765625 377.44945312 138.8828125 378.03515625 C136.78110048 387.71919856 136.78110048 387.71919856 135.25 392.3125 C129.80236298 395.03631851 121.81284868 392.97999348 115.98828125 392.09765625 C115.10067108 391.96684662 114.21306091 391.83603699 113.29855347 391.70126343 C110.38519639 391.267587 107.47373727 390.82267506 104.5625 390.375 C103.557565 390.22177277 102.55263 390.06854553 101.51724243 389.91067505 C72.92483421 385.52513234 44.26277692 380.33161544 16.28588867 372.90014648 C15.40779541 372.67270752 14.52970215 372.44526855 13.625 372.2109375 C12.89023438 372.01161621 12.15546875 371.81229492 11.3984375 371.60693359 C8.76417786 371.24592028 6.79125679 371.55630264 4.25 372.3125 C3.92 372.9725 3.59 373.6325 3.25 374.3125 C2.59 374.3125 1.93 374.3125 1.25 374.3125 C0.9096875 375.116875 0.9096875 375.116875 0.5625 375.9375 C-1.20570089 379.13710161 -3.28670203 381.60287223 -5.75 384.3125 C-6.41 384.3125 -7.07 384.3125 -7.75 384.3125 C-8.03875 384.910625 -8.3275 385.50875 -8.625 386.125 C-9.75 388.3125 -9.75 388.3125 -11.75 391.3125 C-12.41 391.3125 -13.07 391.3125 -13.75 391.3125 C-14.1521875 392.1478125 -14.1521875 392.1478125 -14.5625 393 C-15.85899496 395.52475334 -17.17476323 397.94964484 -18.75 400.3125 C-19.41 400.3125 -20.07 400.3125 -20.75 400.3125 C-21.018125 400.87453125 -21.28625 401.4365625 -21.5625 402.015625 C-22.8303979 404.46800646 -24.23972342 406.75177683 -25.75 409.0625 C-26.265625 409.86171875 -26.78125 410.6609375 -27.3125 411.484375 C-27.786875 412.08765625 -28.26125 412.6909375 -28.75 413.3125 C-29.41 413.3125 -30.07 413.3125 -30.75 413.3125 C-31.41 415.2925 -32.07 417.2725 -32.75 419.3125 C-33.41 419.3125 -34.07 419.3125 -34.75 419.3125 C-35.08 420.6325 -35.41 421.9525 -35.75 423.3125 C-36.41 423.3125 -37.07 423.3125 -37.75 423.3125 C-37.894375 423.910625 -38.03875 424.50875 -38.1875 425.125 C-38.6372439 426.87400404 -39.17892341 428.59927023 -39.75 430.3125 C-40.41 430.3125 -41.07 430.3125 -41.75 430.3125 C-42.059375 431.240625 -42.36875 432.16875 -42.6875 433.125 C-43.375 435.1875 -44.0625 437.25 -44.75 439.3125 C-45.41 439.3125 -46.07 439.3125 -46.75 439.3125 C-47.018125 440.364375 -47.28625 441.41625 -47.5625 442.5 C-48.75 446.3125 -48.75 446.3125 -50.125 448.39453125 C-52.49389067 452.64828444 -53.63574255 457.13903005 -54.9375 461.8125 C-55.21013672 462.74964844 -55.48277344 463.68679688 -55.76367188 464.65234375 C-57.00878063 469.05235214 -57.77557573 472.73010084 -57.75 477.3125 C-58.08 477.9725 -58.41 478.6325 -58.75 479.3125 C-58.05907953 485.35054409 -56.85917573 491.60531861 -54.75 497.3125 C-53.76 497.6425 -52.77 497.9725 -51.75 498.3125 C-51.14285156 498.92996094 -50.53570312 499.54742188 -49.91015625 500.18359375 C-37.75303832 512.16484017 -16.4543878 513.2222282 -0.37792969 513.328125 C4.52053932 513.22367075 9.37815555 512.81491243 14.25 512.3125 C15.42731689 512.19551758 15.42731689 512.19551758 16.62841797 512.07617188 C23.86585324 511.34682906 31.08239607 510.57294479 38.25 509.3125 C40.11978516 508.99152344 40.11978516 508.99152344 42.02734375 508.6640625 C49.15572262 507.42408399 56.27601147 506.14939364 63.375 504.75 C64.53257812 504.52183594 65.69015625 504.29367187 66.8828125 504.05859375 C70.38794346 503.2819348 73.80097325 502.30681402 77.25 501.3125 C79.37182685 500.81947211 81.49686325 500.34003729 83.625 499.875 C88.14778456 498.84475295 92.50445377 497.66197125 96.87890625 496.12890625 C99.7962067 495.12443213 102.73791114 494.21768305 105.6875 493.3125 C106.79609375 492.9721875 107.9046875 492.631875 109.046875 492.28125 C111.0123052 491.68682721 112.98050821 491.10137046 114.953125 490.53125 C119.0272702 489.35256648 122.9575647 488.06704879 126.875 486.4375 C131.2643087 484.62362164 135.71154563 483.19353954 140.25 481.8125 C145.64026999 480.16920149 150.88705497 478.38039376 156.09375 476.2109375 C158.13091311 475.36211954 160.17977457 474.57651177 162.25 473.8125 C167.85783753 471.72926718 173.40532902 469.48846297 178.93359375 467.203125 C179.80113281 466.84734375 180.66867187 466.4915625 181.5625 466.125 C182.34238281 465.80144531 183.12226563 465.47789062 183.92578125 465.14453125 C187.95354945 463.70265793 191.77545052 463.18722576 196.0402832 463.19897461 C197.42114861 463.19908791 197.42114861 463.19908791 198.82991028 463.19920349 C200.30049141 463.20694542 200.30049141 463.20694542 201.80078125 463.21484375 C202.81472458 463.2162587 203.82866791 463.21767365 204.87333679 463.21913147 C208.10308821 463.22471672 211.33276962 463.23726655 214.5625 463.25 C216.75585837 463.2550169 218.94921783 463.25957948 221.14257812 463.26367188 C226.51174253 463.27468132 231.88086626 463.2914048 237.25 463.3125 C236.25 466.3125 236.25 466.3125 233.703125 467.84765625 C232.64609375 468.35167969 231.5890625 468.85570312 230.5 469.375 C229.45328125 469.88160156 228.4065625 470.38820313 227.328125 470.91015625 C224.65888651 472.12621795 221.98075799 473.24434637 219.25 474.3125 C218.26 474.745625 217.27 475.17875 216.25 475.625 C212.88951307 477.07562234 209.48257404 478.38403092 206.0625 479.6875 C199.7366747 482.10492065 193.48910062 484.68076373 187.25 487.3125 C183.25342414 488.98749804 179.25311864 490.65320458 175.25 492.3125 C174.44175781 492.65152344 173.63351562 492.99054688 172.80078125 493.33984375 C167.20611375 495.64244244 161.51755618 497.58234391 155.76928711 499.45922852 C152.28689789 500.60454958 148.87778813 501.82684102 145.5 503.25 C132.23219109 508.72631039 118.03519033 512.37387419 104.25 516.3125 C102.6874182 516.79139985 101.12492571 517.27059116 99.5625 517.75 C91.55421532 520.15978779 83.43101415 522.07299782 75.26171875 523.84765625 C73.40950526 524.27564345 71.57787393 524.7902503 69.75 525.3125 C62.95835808 527.25296912 56.25861502 528.49482825 49.25 529.3125 C46.8118806 529.77646322 44.38654674 530.28293623 41.9609375 530.80810547 C35.7433265 532.12986767 29.57973337 532.89672446 23.25 533.4375 C22.32960937 533.52386719 21.40921875 533.61023438 20.4609375 533.69921875 C15.10206486 534.17472435 9.83652954 534.33866608 4.45874023 534.27563477 C1.6617672 534.32231797 -0.99506197 534.84767507 -3.75 535.3125 C-15.21869339 535.15201236 -26.52444701 533.61096789 -37.75 531.3125 C-37.75 530.6525 -37.75 529.9925 -37.75 529.3125 C-40.72 528.9825 -43.69 528.6525 -46.75 528.3125 C-46.75 527.6525 -46.75 526.9925 -46.75 526.3125 C-47.47574219 526.20035156 -48.20148438 526.08820312 -48.94921875 525.97265625 C-51.87563993 525.28288613 -53.97287809 524.25739186 -56.5625 522.75 C-57.35269531 522.29496094 -58.14289063 521.83992187 -58.95703125 521.37109375 C-59.54871094 521.02175781 -60.14039062 520.67242188 -60.75 520.3125 C-60.75 519.6525 -60.75 518.9925 -60.75 518.3125 C-61.306875 518.085625 -61.86375 517.85875 -62.4375 517.625 C-70.44257722 513.0815778 -75.05281943 503.94117429 -78.125 495.5625 C-79.3751137 489.06190874 -79.86331937 482.86797172 -79.9375 476.25 C-79.95055176 475.57718994 -79.96360352 474.90437988 -79.97705078 474.21118164 C-79.98501195 469.56129092 -79.18086626 465.71858127 -77.75 461.3125 C-77.38261719 460.05953125 -77.01523438 458.8065625 -76.63671875 457.515625 C-74.44989589 450.24835054 -72.08100541 443.30030547 -68.765625 436.44921875 C-67.64843214 434.21055754 -67.64843214 434.21055754 -66.75 431.3125 C-66.09 431.3125 -65.43 431.3125 -64.75 431.3125 C-64.440625 430.19875 -64.13125 429.085 -63.8125 427.9375 C-62.75 424.3125 -62.75 424.3125 -61.75 422.3125 C-61.09 422.3125 -60.43 422.3125 -59.75 422.3125 C-59.4921875 421.61769531 -59.234375 420.92289063 -58.96875 420.20703125 C-57.61111864 416.98265678 -55.99670987 414.03083768 -54.25 411 C-53.6415625 409.93136719 -53.033125 408.86273437 -52.40625 407.76171875 C-51.8596875 406.95347656 -51.313125 406.14523437 -50.75 405.3125 C-50.09 405.3125 -49.43 405.3125 -48.75 405.3125 C-48.42 403.9925 -48.09 402.6725 -47.75 401.3125 C-47.09 401.3125 -46.43 401.3125 -45.75 401.3125 C-45.09 399.3325 -44.43 397.3525 -43.75 395.3125 C-43.09 395.3125 -42.43 395.3125 -41.75 395.3125 C-41.646875 394.714375 -41.54375 394.11625 -41.4375 393.5 C-40.65298309 391.00380983 -39.65110692 390.05518135 -37.75 388.3125 C-37.42 387.6525 -37.09 386.9925 -36.75 386.3125 C-36.09 386.3125 -35.43 386.3125 -34.75 386.3125 C-34.75 385.6525 -34.75 384.9925 -34.75 384.3125 C-34.09 384.3125 -33.43 384.3125 -32.75 384.3125 C-32.481875 383.57 -32.21375 382.8275 -31.9375 382.0625 C-30.79723249 379.42188051 -29.65619694 377.45697156 -27.75 375.3125 C-27.09 375.3125 -26.43 375.3125 -25.75 375.3125 C-25.09 373.6625 -24.43 372.0125 -23.75 370.3125 C-23.09 370.3125 -22.43 370.3125 -21.75 370.3125 C-21.75 369.6525 -21.75 368.9925 -21.75 368.3125 C-21.09 368.3125 -20.43 368.3125 -19.75 368.3125 C-19.42 367.3225 -19.09 366.3325 -18.75 365.3125 C-18.09 365.3125 -17.43 365.3125 -16.75 365.3125 C-16.75 364.6525 -16.75 363.9925 -16.75 363.3125 C-17.73335327 363.05944092 -17.73335327 363.05944092 -18.73657227 362.80126953 C-53.19995265 353.69819403 -87.40217733 338.38885677 -114.875 315.5 C-115.40802734 315.05591797 -115.94105469 314.61183594 -116.49023438 314.15429688 C-119.63770419 311.4605164 -122.34996535 308.694367 -124.75 305.3125 C-124.75 304.6525 -124.75 303.9925 -124.75 303.3125 C-123.66332031 303.05726563 -123.66332031 303.05726563 -122.5546875 302.796875 C-116.09051764 301.25856382 -116.09051764 301.25856382 -110.3125 298.125 C-107.75 296.3125 -107.75 296.3125 -103.75 296.3125 C-101.3671875 298.11328125 -101.3671875 298.11328125 -98.625 300.625 C-71.42498727 324.31615587 -33.6384714 336.08662758 0.25 346.3125 C0.25 345.6525 0.25 344.9925 0.25 344.3125 C1.91215268 342.97354368 3.57963607 341.64119858 5.25 340.3125 C5.848125 339.549375 6.44625 338.78625 7.0625 338 C9.55945851 334.93230812 12.33867404 332.51366329 15.34765625 329.9609375 C17.25832449 328.35979139 17.25832449 328.35979139 18.87109375 326.6015625 C20.25 325.3125 20.25 325.3125 22.25 325.3125 C22.58 324.3225 22.91 323.3325 23.25 322.3125 C23.91 322.3125 24.57 322.3125 25.25 322.3125 C25.58 321.3225 25.91 320.3325 26.25 319.3125 C26.91 319.3125 27.57 319.3125 28.25 319.3125 C28.58 318.3225 28.91 317.3325 29.25 316.3125 C31.02734375 314.48828125 31.02734375 314.48828125 33.1875 312.625 C34.25291016 311.69107422 34.25291016 311.69107422 35.33984375 310.73828125 C37.25 309.3125 37.25 309.3125 39.25 309.3125 C39.58 308.3225 39.91 307.3325 40.25 306.3125 C44.70714286 302.3125 44.70714286 302.3125 47.25 302.3125 C47.58 301.3225 47.91 300.3325 48.25 299.3125 C53.71511628 294.3125 53.71511628 294.3125 56.25 294.3125 C56.58 293.3225 56.91 292.3325 57.25 291.3125 C58.921875 289.8828125 58.921875 289.8828125 61 288.4375 C63.59647624 286.57692344 65.68617069 284.86618581 67.9375 282.5625 C70.33141223 280.2332881 72.19235883 279.50158268 75.25 278.3125 C75.58 277.3225 75.91 276.3325 76.25 275.3125 C77.58333333 274.97916667 78.91666667 274.64583333 80.25 274.3125 C80.58 273.3225 80.91 272.3325 81.25 271.3125 C83.3125 269.625 83.3125 269.625 85.25 268.3125 C82.63818636 265.62386831 80.02077847 263.06927779 77.125 260.6875 C74.25 258.3125 74.25 258.3125 72.5 256.5 C71.29569007 255.08291685 71.29569007 255.08291685 69.25 255.3125 C66.625 252.9375 66.625 252.9375 64.25 250.3125 C64.25 249.6525 64.25 248.9925 64.25 248.3125 C62.6 247.6525 60.95 246.9925 59.25 246.3125 C59.25 245.6525 59.25 244.9925 59.25 244.3125 C58.528125 244.10625 57.80625 243.9 57.0625 243.6875 C53.43253654 241.9128512 51.7481422 239.45119148 49.25 236.3125 C47.94855198 235.27134159 46.61161311 234.27363866 45.25 233.3125 C40.68022341 229.66325395 36.9930415 225.82334488 33.25 221.3125 C31.79535243 220.11083462 30.3401553 218.90960619 28.8671875 217.73046875 C25.14553539 214.46728103 21.35487346 210.62156139 19.20703125 206.1328125 C17.83776258 203.5284076 15.91947411 203.33922081 13.25 202.3125 C12.92 201.3225 12.59 200.3325 12.25 199.3125 C11.26 198.9825 10.27 198.6525 9.25 198.3125 C7.5625 196.875 7.5625 196.875 6.25 195.3125 C6.25 194.6525 6.25 193.9925 6.25 193.3125 C-20.20211874 200.91985753 -46.47512789 209.07697685 -70.75 222.3125 C-71.41386719 222.66521973 -72.07773438 223.01793945 -72.76171875 223.38134766 C-83.63752788 229.16358483 -94.24239948 235.30374322 -102.6875 244.4375 C-105.42763859 247.29677505 -105.42763859 247.29677505 -108.3125 247.4375 C-110.75 246.3125 -110.75 246.3125 -113.375 244.8125 C-118.07412949 242.723998 -122.65826738 242.57524065 -127.75 242.3125 C-127.75 238.16750811 -125.52092263 236.47676781 -122.8125 233.625 C-122.3081543 233.0882666 -121.80380859 232.5515332 -121.28417969 231.99853516 C-92.52006314 201.71717052 -50.42585001 188.11714061 -11.75 175.3125 C-11.75 174.6525 -11.75 173.9925 -11.75 173.3125 C-12.41 173.3125 -13.07 173.3125 -13.75 173.3125 C-18.75 167.83630952 -18.75 167.83630952 -18.75 165.3125 C-19.41 164.9825 -20.07 164.6525 -20.75 164.3125 C-21.41666667 162.97916667 -22.08333333 161.64583333 -22.75 160.3125 C-23.41 159.9825 -24.07 159.6525 -24.75 159.3125 C-27.64041619 156.06078179 -29.86112751 153.22516443 -31.75 149.3125 C-32.5234375 148.57 -32.5234375 148.57 -33.3125 147.8125 C-34.75 146.3125 -34.75 146.3125 -35.25 144.1875 C-35.415 143.56875 -35.58 142.95 -35.75 142.3125 C-36.74 141.9825 -37.73 141.6525 -38.75 141.3125 C-39.41666667 139.97916667 -40.08333333 138.64583333 -40.75 137.3125 C-41.8946875 136.19875 -41.8946875 136.19875 -43.0625 135.0625 C-46.61717625 131.42515686 -50.07484949 127.17166012 -51.265625 122.12890625 C-51.42546875 121.52949219 -51.5853125 120.93007813 -51.75 120.3125 C-52.41 119.9825 -53.07 119.6525 -53.75 119.3125 C-60.39766609 109.86203415 -64.50801726 98.97836736 -68.75 88.3125 C-69.05389648 87.55727051 -69.35779297 86.80204102 -69.67089844 86.02392578 C-75.44471776 71.6021373 -79.31969051 53.59025441 -73.75 38.3125 C-71.79427291 33.76023312 -69.36397408 29.51758874 -66.75 25.3125 C-66.234375 24.384375 -65.71875 23.45625 -65.1875 22.5 C-64.713125 21.778125 -64.23875 21.05625 -63.75 20.3125 C-63.09 20.3125 -62.43 20.3125 -61.75 20.3125 C-61.255 18.8275 -61.255 18.8275 -60.75 17.3125 C-60.09 17.3125 -59.43 17.3125 -58.75 17.3125 C-58.42 16.6525 -58.09 15.9925 -57.75 15.3125 C-56.26171875 14.0234375 -56.26171875 14.0234375 -54.4375 12.6875 C-53.84324219 12.24148437 -53.24898438 11.79546875 -52.63671875 11.3359375 C-50.75 10.3125 -50.75 10.3125 -46.75 10.3125 C-46.75 9.6525 -46.75 8.9925 -46.75 8.3125 C-32.94738527 0.14360557 -15.63528066 0.05256063 0 0 Z " fill="#000000" transform="translate(178.75,221.6875)"/>
<path d="M0 0 C12.87 0 25.74 0 39 0 C39 0.66 39 1.32 39 2 C39.763125 2.103125 40.52625 2.20625 41.3125 2.3125 C44.28334611 3.07248389 45.27413043 3.49748912 47 6 C47.6875 9.1875 47.6875 9.1875 48 12 C48.66 12 49.32 12 50 12 C50.67155349 14.26949102 51.3373963 16.5403961 52 18.8125 C52.37125 20.07707031 52.7425 21.34164063 53.125 22.64453125 C54 26 54 26 54 29 C54.66 29 55.32 29 56 29 C56.67364661 31.08108685 57.33866798 33.1649671 58 35.25 C58.37125 36.41015625 58.7425 37.5703125 59.125 38.765625 C60 42 60 42 60 46 C60.66 46 61.32 46 62 46 C63.32 51.61 64.64 57.22 66 63 C66.66 63 67.32 63 68 63 C68.25394531 63.94101562 68.50789062 64.88203125 68.76953125 65.8515625 C69.11371094 67.09679687 69.45789063 68.34203125 69.8125 69.625 C70.14894531 70.85476563 70.48539063 72.08453125 70.83203125 73.3515625 C71.88828607 76.98024239 71.88828607 76.98024239 73.5625 80.09375 C75.04199629 83.08490554 75.66708603 85.59238882 76.1875 88.875 C76.34605469 89.84179688 76.50460937 90.80859375 76.66796875 91.8046875 C76.83232422 92.89136719 76.83232422 92.89136719 77 94 C77.66 94 78.32 94 79 94 C79.67364661 96.08108685 80.33866798 98.1649671 81 100.25 C81.37125 101.41015625 81.7425 102.5703125 82.125 103.765625 C83 107 83 107 83 111 C83.66 111 84.32 111 85 111 C85.67364661 113.08108685 86.33866798 115.1649671 87 117.25 C87.37125 118.41015625 87.7425 119.5703125 88.125 120.765625 C89 124 89 124 89 128 C89.66 128 90.32 128 91 128 C91.67364661 130.08108685 92.33866798 132.1649671 93 134.25 C93.37125 135.41015625 93.7425 136.5703125 94.125 137.765625 C95 141 95 141 95 145 C95.66 145 96.32 145 97 145 C97.67364661 147.08108685 98.33866798 149.1649671 99 151.25 C99.37125 152.41015625 99.7425 153.5703125 100.125 154.765625 C101 158 101 158 101 162 C101.66 162 102.32 162 103 162 C103.67184618 164.10251861 104.33730968 166.20707763 105 168.3125 C105.37125 169.48425781 105.7425 170.65601563 106.125 171.86328125 C107 175 107 175 107 178 C107.66 178 108.32 178 109 178 C109.67155349 180.26949102 110.3373963 182.5403961 111 184.8125 C111.556875 186.70935547 111.556875 186.70935547 112.125 188.64453125 C113 192 113 192 113 195 C113.66 195 114.32 195 115 195 C115.67155349 197.26949102 116.3373963 199.5403961 117 201.8125 C117.556875 203.70935547 117.556875 203.70935547 118.125 205.64453125 C119 209 119 209 119 212 C119.66 212 120.32 212 121 212 C121.67364661 214.08108685 122.33866798 216.1649671 123 218.25 C123.37125 219.41015625 123.7425 220.5703125 124.125 221.765625 C125 225 125 225 125 229 C125.66 229 126.32 229 127 229 C127.67364661 231.08108685 128.33866798 233.1649671 129 235.25 C129.37125 236.41015625 129.7425 237.5703125 130.125 238.765625 C131 242 131 242 131 246 C131.66 246 132.32 246 133 246 C133.67155349 248.26949102 134.3373963 250.5403961 135 252.8125 C135.556875 254.70935547 135.556875 254.70935547 136.125 256.64453125 C137 260 137 260 137 263 C137.66 263 138.32 263 139 263 C139.25394531 263.94101562 139.50789062 264.88203125 139.76953125 265.8515625 C140.11371094 267.09679687 140.45789063 268.34203125 140.8125 269.625 C141.14894531 270.85476563 141.48539063 272.08453125 141.83203125 273.3515625 C142.93676914 276.80248287 144.33303326 279.79290094 146 283 C147.2918501 286.9435424 148 289.83401522 148 294 C148.66 294 149.32 294 150 294 C150.67364661 296.08108685 151.33866798 298.1649671 152 300.25 C152.37125 301.41015625 152.7425 302.5703125 153.125 303.765625 C154 307 154 307 154 311 C154.66 311 155.32 311 156 311 C156.67364661 313.08108685 157.33866798 315.1649671 158 317.25 C158.37125 318.41015625 158.7425 319.5703125 159.125 320.765625 C160 324 160 324 160 328 C160.66 328 161.32 328 162 328 C162.32613281 329.0621875 162.65226563 330.124375 162.98828125 331.21875 C163.42940938 332.64591933 163.87083473 334.07299681 164.3125 335.5 C164.5388916 336.23597412 164.7652832 336.97194824 164.99853516 337.73022461 C166.14553395 341.41934226 167.35508811 345.00661311 168.875 348.5625 C170.19596568 352.59878401 170.17384326 354.93067669 169 359 C166.73466753 361.86942113 165.48277163 362.83907612 162 364 C159.26228194 364.0964217 156.55023801 364.13642136 153.8125 364.12939453 C152.5608606 364.13202301 152.5608606 364.13202301 151.28393555 364.13470459 C148.52260261 364.13910989 145.7613336 364.13618974 143 364.1328125 C141.08333321 364.13348592 139.1666665 364.13445626 137.25 364.13571167 C133.23176257 364.13718685 129.21354735 364.13503983 125.1953125 364.13037109 C120.04018383 364.12467392 114.88510723 364.12795388 109.72998047 364.13394356 C105.77180589 364.137554 101.8136437 364.13640835 97.85546875 364.13381577 C95.95442702 364.13314784 94.05338417 364.13397026 92.15234375 364.13629532 C89.49736547 364.13882972 86.84247196 364.13497005 84.1875 364.12939453 C83.39883545 364.13141876 82.6101709 364.13344299 81.79760742 364.13552856 C78.59883413 364.1230598 76.05734354 364.01911451 73 363 C73 362.34 73 361.68 73 361 C72.38125 360.814375 71.7625 360.62875 71.125 360.4375 C67.90015259 358.25598557 67.76672901 355.70585687 67 352 C67 350.68 67 349.36 67 348 C66.34 348 65.68 348 65 348 C64.74605469 347.09378906 64.49210938 346.18757813 64.23046875 345.25390625 C62.49495226 339.1113479 60.7161439 333.00531649 58.66015625 326.9609375 C57.1585782 322.50062873 56 318.72330903 56 314 C55.34 314 54.68 314 54 314 C53.32713788 311.58490559 52.66153988 309.16819644 52 306.75 C51.80921875 306.06808594 51.6184375 305.38617187 51.421875 304.68359375 C50.50042956 301.29399088 50 298.54221024 50 295 C49.34 295 48.68 295 48 295 C47.505 291.535 47.505 291.535 47 288 C46.41340103 288.00222061 45.82680206 288.00444122 45.22242737 288.00672913 C39.13974616 288.0287821 33.05707623 288.04390664 26.97436523 288.05493164 C24.70157409 288.05997325 22.4287862 288.06680637 20.15600586 288.07543945 C16.89696449 288.08751261 13.63796583 288.09322987 10.37890625 288.09765625 C9.35599991 288.10281754 8.33309357 288.10797882 7.27919006 288.11329651 C6.33829025 288.11337204 5.39739044 288.11344757 4.42797852 288.11352539 C3.59524918 288.115746 2.76251984 288.11796661 1.90455627 288.12025452 C0 288 0 288 -1 287 C-1.10025695 284.63238425 -1.13618935 282.29392927 -1.12939453 279.92578125 C-1.13114685 279.18597015 -1.13289917 278.44615906 -1.13470459 277.68392944 C-1.1391231 275.22676277 -1.13618513 272.76966747 -1.1328125 270.3125 C-1.13348554 268.61238593 -1.13445557 266.91227195 -1.13571167 265.2121582 C-1.13718864 261.64435919 -1.13503411 258.07658517 -1.13037109 254.50878906 C-1.1246738 249.92511506 -1.12795281 245.34149961 -1.13394356 240.75782776 C-1.13754919 237.24580439 -1.13641057 233.73379502 -1.13381577 230.22177124 C-1.1331465 228.53119907 -1.13397489 226.84062564 -1.13629532 225.15005493 C-1.13882189 222.79140843 -1.13498121 220.43285805 -1.12939453 218.07421875 C-1.13141876 217.36872894 -1.13344299 216.66323914 -1.13552856 215.93637085 C-1.11426271 211.11426271 -1.11426271 211.11426271 0 210 C1.63472882 209.91299658 3.27314055 209.89298937 4.91015625 209.90234375 C5.89951172 209.90556641 6.88886719 209.90878906 7.90820312 209.91210938 C8.94912109 209.92048828 9.99003906 209.92886719 11.0625 209.9375 C12.62967773 209.94426758 12.62967773 209.94426758 14.22851562 209.95117188 C16.81903454 209.96300073 19.40952422 209.98093681 22 210 C21.01 204.06 21.01 204.06 20 198 C19.34 198 18.68 198 18 198 C17.32873871 195.5636811 16.66283646 193.12611117 16 190.6875 C15.80921875 189.99720703 15.6184375 189.30691406 15.421875 188.59570312 C14.62283816 185.64212051 14 183.07440781 14 180 C13.34 180 12.68 180 12 180 C11.32749476 177.41806023 10.66182099 174.83467929 10 172.25 C9.80921875 171.52039063 9.6184375 170.79078125 9.421875 170.0390625 C8.53484036 166.55428354 8 163.61876278 8 160 C7.34 160 6.68 160 6 160 C5.32678716 157.75194998 4.66165877 155.50147776 4 153.25 C3.62875 151.99703125 3.2575 150.7440625 2.875 149.453125 C2 146 2 146 2 142 C1.34 142 0.68 142 0 142 C-0.97647557 138.72945805 -1.12569497 135.77581814 -1.12698364 132.36935425 C-1.12980347 131.22242096 -1.13262329 130.07548767 -1.13552856 128.89379883 C-1.13350433 127.63962158 -1.1314801 126.38544434 -1.12939453 125.09326172 C-1.13074988 123.75603182 -1.13253057 122.4188023 -1.13470459 121.08157349 C-1.13926209 117.45368328 -1.1374965 113.82582152 -1.1343255 110.19793081 C-1.13179428 106.4032035 -1.13414148 102.60847863 -1.13571167 98.81375122 C-1.13753068 92.44337527 -1.1351336 86.07301091 -1.13037109 79.70263672 C-1.12492432 72.33173249 -1.12669522 64.96085591 -1.1321975 57.58995235 C-1.13673068 51.26462501 -1.13737831 44.93930599 -1.13475883 38.61397755 C-1.13319779 34.83459528 -1.13299767 31.05522602 -1.13629532 27.27584457 C-1.13917716 23.72509588 -1.13719256 20.17438297 -1.13140106 16.62363815 C-1.12944144 14.69414062 -1.1324244 12.76464007 -1.13552856 10.83514404 C-1.13270874 9.6938504 -1.12988892 8.55255676 -1.12698364 7.37667847 C-1.12660662 6.38080656 -1.12622959 5.38493465 -1.12584114 4.35888481 C-1 2 -1 2 0 0 Z " fill="#404040" transform="translate(506,305)"/>
<path d="M0 0 C0 0.66 0 1.32 0 2 C1.65 2.33 3.3 2.66 5 3 C5 3.66 5 4.32 5 5 C6.65 5.66 8.3 6.32 10 7 C10 7.66 10 8.32 10 9 C10.99 9.33 11.98 9.66 13 10 C13 10.66 13 11.32 13 12 C13.99 12.33 14.98 12.66 16 13 C21.92920771 21.37219976 25.28516116 29.76986198 26 40 C26.08894531 41.09828125 26.17789062 42.1965625 26.26953125 43.328125 C26.8354202 56.33041061 23.07535631 67.77393106 19 80 C18.34 80 17.68 80 17 80 C16.896875 80.845625 16.79375 81.69125 16.6875 82.5625 C15.9171146 86.41442701 14.63725486 89.44075031 13 93 C12.34 93 11.68 93 11 93 C10.89816406 93.70511719 10.79632812 94.41023438 10.69140625 95.13671875 C9.90085188 98.41059645 8.59476266 100.88584467 6.9375 103.8125 C6.38964844 104.78832031 5.84179688 105.76414062 5.27734375 106.76953125 C4.64505859 107.87361328 4.64505859 107.87361328 4 109 C3.34 109 2.68 109 2 109 C1.731875 109.721875 1.46375 110.44375 1.1875 111.1875 C0.00098638 113.99766383 -1.27485639 116.48416557 -3 119 C-3.66 119 -4.32 119 -5 119 C-5.268125 119.9075 -5.53625 120.815 -5.8125 121.75 C-6.90131632 124.72991834 -7.86391101 126.68590359 -10 129 C-10.66 129 -11.32 129 -12 129 C-12.268125 129.928125 -12.53625 130.85625 -12.8125 131.8125 C-13.90977245 134.75781025 -14.53357169 136.15017877 -17 138 C-17.66 138 -18.32 138 -19 138 C-19.33 139.32 -19.66 140.64 -20 142 C-20.66 142 -21.32 142 -22 142 C-22.268125 142.556875 -22.53625 143.11375 -22.8125 143.6875 C-24.10899496 146.21225334 -25.42476323 148.63714484 -27 151 C-27.66 151 -28.32 151 -29 151 C-29.33 151.99 -29.66 152.98 -30 154 C-30.66 154 -31.32 154 -32 154 C-32.1546875 154.8971875 -32.1546875 154.8971875 -32.3125 155.8125 C-33.09423531 158.29983964 -34.1264074 159.24696028 -36 161 C-34.77204712 161.42128174 -34.77204712 161.42128174 -33.51928711 161.85107422 C61.22624165 194.50824102 61.22624165 194.50824102 80 233 C85.36813978 245.48675992 86.24744728 259.54724267 81.25390625 272.30078125 C77.14193484 281.15240819 71.73582562 287.97483479 65 295 C64.37351562 295.68964844 63.74703125 296.37929688 63.1015625 297.08984375 C43.81602413 317.6366726 13.82679442 329.29061841 -12 338.875 C-12.74594421 339.15203766 -13.49188843 339.42907532 -14.26043701 339.71450806 C-23.42739672 343.10383328 -32.61967054 346.24503802 -42 349 C-41.55897949 349.57524414 -41.11795898 350.15048828 -40.66357422 350.74316406 C-38.11752077 354.06410334 -35.76833055 357.18864678 -34 361 C-33.34 361 -32.68 361 -32 361 C-31.34 362.65 -30.68 364.3 -30 366 C-29.34 366 -28.68 366 -28 366 C-27.06539949 367.31536368 -26.14446294 368.6420703 -25.28515625 370.0078125 C-23.11609141 373.37019264 -20.73078149 376.5833702 -18.390625 379.828125 C-17 382 -17 382 -17 384 C-16.34 384 -15.68 384 -15 384 C-14.67 385.32 -14.34 386.64 -14 388 C-13.4225 388.020625 -12.845 388.04125 -12.25 388.0625 C-8.57066705 389.59555539 -7.72716653 392.48398243 -6 396 C-6 396.66 -6 397.32 -6 398 C-5.34 398 -4.68 398 -4 398 C-2.66161267 400.45570175 -1.32913768 402.91429916 0 405.375 C0.3815625 406.07367187 0.763125 406.77234375 1.15625 407.4921875 C4 412.7734375 4 412.7734375 4 415 C4.66 415.33 5.32 415.66 6 416 C16 434.38596491 16 434.38596491 16 443 C16.66 443 17.32 443 18 443 C23.36503287 462.35243998 23.96059869 478.6708893 14.5 496.875 C13.9121875 498.00679687 13.324375 499.13859375 12.71875 500.3046875 C11 503 11 503 8 504 C7.67 504.99 7.34 505.98 7 507 C6.34 507 5.68 507 5 507 C4.67 507.66 4.34 508.32 4 509 C2.51171875 510.2890625 2.51171875 510.2890625 0.6875 511.625 C0.09324219 512.07101562 -0.50101563 512.51703125 -1.11328125 512.9765625 C-3 514 -3 514 -7 514 C-7 514.66 -7 515.32 -7 516 C-27.0097918 526.66591366 -50.01306929 524.41835598 -72 524 C-71.67 517.4 -71.34 510.8 -71 504 C-65.98068579 502.32689526 -63.55143651 501.76285157 -58.53515625 501.83984375 C-57.32279297 501.85080078 -56.11042969 501.86175781 -54.86132812 501.87304688 C-53.60771484 501.89431641 -52.35410156 501.91558594 -51.0625 501.9375 C-41.02648781 502.07724849 -32.66339235 501.78751703 -23 499 C-22.01 499 -21.02 499 -20 499 C-19.67 498.34 -19.34 497.68 -19 497 C-18.34 497.33 -17.68 497.66 -17 498 C-17 497.34 -17 496.68 -17 496 C-15.35 495.67 -13.7 495.34 -12 495 C-11.67 494.01 -11.34 493.02 -11 492 C-10.34 492 -9.68 492 -9 492 C-9 491.34 -9 490.68 -9 490 C-8.236875 489.278125 -7.47375 488.55625 -6.6875 487.8125 C-0.75994769 481.60924758 0.11528561 474.33195962 -0.0625 466.109375 C-0.42964191 460.14331903 -1.41229219 454.802032 -3.37890625 449.15625 C-4 447 -4 447 -4 443 C-4.66 443 -5.32 443 -6 443 C-6.37511719 442.0821875 -6.75023437 441.164375 -7.13671875 440.21875 C-9.61913589 434.23236841 -12.09407396 428.42530751 -15.69921875 423.01171875 C-17.3585951 420.44541599 -18.8349418 417.79983019 -20.3125 415.125 C-20.82425781 414.19945312 -21.33601563 413.27390625 -21.86328125 412.3203125 C-23 410 -23 410 -23 408 C-23.66 408 -24.32 408 -25 408 C-26.7265625 405.6640625 -26.7265625 405.6640625 -28.625 402.625 C-29.25664063 401.62726563 -29.88828125 400.62953125 -30.5390625 399.6015625 C-32 397 -32 397 -32 395 C-32.66 395 -33.32 395 -34 395 C-34.97306658 393.58578176 -35.93856696 392.16553748 -36.85791016 390.71582031 C-38.72744251 387.90712571 -40.97400156 385.41326488 -43.1875 382.875 C-47.72643262 377.60366086 -51.93930159 372.19015838 -56.02734375 366.55859375 C-57.93751455 363.96031159 -57.93751455 363.96031159 -60.25390625 361.78515625 C-62 360 -62 360 -62 358 C-62.66 358 -63.32 358 -64 358 C-64.33 357.34 -64.66 356.68 -65 356 C-66.15693359 356.24379395 -67.31386719 356.48758789 -68.50585938 356.73876953 C-72.78677398 357.64067304 -77.06792544 358.54144828 -81.34912109 359.4420166 C-83.78630071 359.95501845 -86.22324876 360.46910582 -88.66015625 360.98339844 C-115.69652707 366.68079167 -142.78987163 371.81584557 -170.125 375.875 C-171.31343506 376.05542847 -171.31343506 376.05542847 -172.52587891 376.23950195 C-177.72419216 376.97358885 -182.74997989 377.09356471 -188 377 C-188.50367757 375.54293274 -189.00282556 374.08429904 -189.5 372.625 C-189.7784375 371.81289063 -190.056875 371.00078125 -190.34375 370.1640625 C-191 368 -191 368 -191 366 C-191.66 366 -192.32 366 -193 366 C-193.33 363.03 -193.66 360.06 -194 357 C-192.73969971 356.82460693 -191.47939941 356.64921387 -190.1809082 356.46850586 C-157.4061584 351.88733974 -124.83828711 346.75951307 -92.55444336 339.42138672 C-91.71921143 339.23205566 -90.88397949 339.04272461 -90.0234375 338.84765625 C-89.31106934 338.68273682 -88.59870117 338.51781738 -87.86474609 338.34790039 C-86 338 -86 338 -83 338 C-83.721875 337.278125 -84.44375 336.55625 -85.1875 335.8125 C-103 318 -103 318 -105.375 315.5625 C-107.39007164 313.59540625 -109.40521625 311.79850308 -111.5625 310 C-113.71653968 308.18949251 -115.30533372 306.61139345 -117.0625 304.375 C-119.38706973 301.52552743 -121.91659127 299.99514683 -125 298 C-129.86125533 294.21467643 -129.86125533 294.21467643 -132 292 C-132 291.34 -132 290.68 -132 290 C-133.32 289.34 -134.64 288.68 -136 288 C-136 287.34 -136 286.68 -136 286 C-136.7425 285.7525 -137.485 285.505 -138.25 285.25 C-141.27729312 283.87395767 -142.69529466 282.37249079 -145 280 C-146.15279538 279.14758088 -147.32075444 278.31543576 -148.5 277.5 C-151.29176361 275.56077496 -153.6817275 273.5037343 -156 271 C-157.423125 271.7425 -157.423125 271.7425 -158.875 272.5 C-162 274 -162 274 -164 274 C-164.33 274.99 -164.66 275.98 -165 277 C-169.33333333 280 -169.33333333 280 -172 280 C-172.33 280.99 -172.66 281.98 -173 283 C-177.33333333 286 -177.33333333 286 -180 286 C-180.33 286.99 -180.66 287.98 -181 289 C-185.33333333 292 -185.33333333 292 -188 292 C-188.33 292.99 -188.66 293.98 -189 295 C-190.671875 296.24609375 -190.671875 296.24609375 -192.75 297.4375 C-196.06682972 299.40631336 -199.00065131 301.56809566 -202 304 C-206.60714286 307 -206.60714286 307 -209 307 C-209 307.66 -209 308.32 -209 309 C-210.828125 308.95703125 -210.828125 308.95703125 -213 308 C-214.1389453 305.51530091 -214.97782986 303.28325435 -215.75 300.6875 C-215.97042969 300.01009766 -216.19085937 299.33269531 -216.41796875 298.63476562 C-217.4867464 295.23923912 -218 292.59199487 -218 289 C-217.34 289 -216.68 289 -216 289 C-215.67 288.01 -215.34 287.02 -215 286 C-213.27063131 284.98848246 -211.53709774 283.98224462 -209.76953125 283.0390625 C-207.47256474 281.69029188 -205.84543884 279.90695347 -204 278 C-199.5 275 -199.5 275 -197 275 C-196.67 274.01 -196.34 273.02 -196 272 C-191.66666667 269 -191.66666667 269 -189 269 C-189 268.34 -189 267.68 -189 267 C-187.9275 266.4225 -186.855 265.845 -185.75 265.25 C-182.679165 263.50141589 -180.42377166 261.59092833 -178 259 C-176.68441297 257.97676564 -175.35622245 256.96873032 -174 256 C-176.9905167 252.66442368 -179.93184627 250.84916079 -184 249 C-184 248.34 -184 247.68 -184 247 C-184.66 246.814375 -185.32 246.62875 -186 246.4375 C-189.52734254 244.74731503 -191.92786947 242.55818956 -194.80859375 239.9453125 C-199.28000237 235.97604068 -204.0261802 232.31587987 -209 229 C-209 228.34 -209 227.68 -209 227 C-209.86625 226.7525 -210.7325 226.505 -211.625 226.25 C-217.13688603 224.20856073 -220.90254605 221.09745395 -225 217 C-226.0725 216.29875 -227.145 215.5975 -228.25 214.875 C-229.61125 213.946875 -229.61125 213.946875 -231 213 C-231 212.34 -231 211.68 -231 211 C-231.804375 210.79375 -232.60875 210.5875 -233.4375 210.375 C-238.05469793 208.59292361 -242.16242583 206.13828288 -246 203 C-246 202.34 -246 201.68 -246 201 C-246.763125 200.814375 -247.52625 200.62875 -248.3125 200.4375 C-251.40300138 198.78444112 -252.1719302 197.32602322 -253.375 194.0859375 C-254.46861016 190.43601358 -255.27921343 186.73961032 -256 183 C-256.66 183 -257.32 183 -258 183 C-258.50636607 181.25183142 -259.00484619 179.50137737 -259.5 177.75 C-259.7784375 176.77546875 -260.056875 175.8009375 -260.34375 174.796875 C-261 172 -261 172 -261 168 C-255.72504151 169.44754675 -251.76552981 171.88512645 -247.3125 174.9375 C-246.64927734 175.38029297 -245.98605469 175.82308594 -245.30273438 176.27929688 C-240.37874588 179.60658417 -240.37874588 179.60658417 -238.51245117 181.54516602 C-236.84259874 183.305729 -236.84259874 183.305729 -233.4375 184.6875 C-228.90146128 186.85148177 -225.31328535 189.84848338 -221.4609375 193.04296875 C-218.65901258 195.27116619 -215.73321557 197.08639786 -212.66796875 198.921875 C-210.47222902 200.34113534 -208.81508248 202.12636647 -207 204 C-205.1556071 205.32603411 -203.28677217 206.60074273 -201.390625 207.8515625 C-200.93171875 208.23054687 -200.4728125 208.60953125 -200 209 C-200 209.66 -200 210.32 -200 211 C-198.9171875 211.37125 -198.9171875 211.37125 -197.8125 211.75 C-194.69295837 213.13646295 -192.6181506 214.80805996 -190 217 C-187.86464146 218.55371237 -185.72392649 220.09900993 -183.57421875 221.6328125 C-183.05472656 222.08398438 -182.53523437 222.53515625 -182 223 C-182 223.66 -182 224.32 -182 225 C-181.154375 225.04125 -180.30875 225.0825 -179.4375 225.125 C-174.8079691 226.30342605 -172.42194339 228.79434197 -169 232 C-166.27992218 234.33056787 -163.5466822 236.61156791 -160.625 238.6875 C-160.08875 239.120625 -159.5525 239.55375 -159 240 C-159 240.66 -159 241.32 -159 242 C-157.68 242.33 -156.36 242.66 -155 243 C-154.67 242.01 -154.34 241.02 -154 240 C-152.33333333 239.33333333 -150.66666667 238.66666667 -149 238 C-148.67 237.01 -148.34 236.02 -148 235 C-146.66666667 234.33333333 -145.33333333 233.66666667 -144 233 C-142.31237149 231.3545622 -140.6459651 229.68711423 -139 228 C-135.37931034 225 -135.37931034 225 -133 225 C-132.67 224.01 -132.34 223.02 -132 222 C-130.37251976 220.61910767 -128.69443347 219.29786393 -127 218 C-124.94343805 216.17595382 -122.90176008 214.33681315 -120.8671875 212.48828125 C-119 211 -119 211 -116 210 C-115.67 209.01 -115.34 208.02 -115 207 C-113.51171875 205.7890625 -113.51171875 205.7890625 -111.6875 204.625 C-108.46532075 202.43969309 -106.38266189 200.09746046 -104 197 C-99.45945946 193 -99.45945946 193 -97 193 C-96.67 192.01 -96.34 191.02 -96 190 C-94.3603279 188.63360658 -92.68889872 187.3050581 -91 186 C-88.2503697 183.38785122 -85.76933385 180.73075397 -83.4375 177.75 C-80.33243243 174.24684685 -80.33243243 174.24684685 -77 174 C-77 173.34 -77 172.68 -77 172 C-82.2195824 170.87803369 -87.44382638 169.77989498 -92.67089844 168.69335938 C-94.98982375 168.21039165 -97.30813933 167.72449099 -99.62597656 167.23632812 C-156.21644816 155.36300654 -213.40775929 148.71574834 -271 144 C-271.50757862 142.58603098 -272.00574925 141.16868271 -272.5 139.75 C-272.7784375 138.96109375 -273.056875 138.1721875 -273.34375 137.359375 C-274 135 -274 135 -274 131 C-274.66 131 -275.32 131 -276 131 C-276.66 128.36 -277.32 125.72 -278 123 C-266.14867376 122.70731289 -254.48385762 123.59472718 -242.6875 124.625 C-241.67234314 124.71269653 -240.65718628 124.80039307 -239.61126709 124.89074707 C-93.80002525 137.59998737 -93.80002525 137.59998737 -59 155 C-58.67 154.01 -58.34 153.02 -58 152 C-57.34 152 -56.68 152 -56 152 C-55.34 150.35 -54.68 148.7 -54 147 C-53.34 147 -52.68 147 -52 147 C-52 146.34 -52 145.68 -52 145 C-51.34 145 -50.68 145 -50 145 C-49.731875 144.236875 -49.46375 143.47375 -49.1875 142.6875 C-48.04865495 140.11011382 -47.18583329 138.73045136 -45 137 C-44.34 137 -43.68 137 -43 137 C-42.67 135.68 -42.34 134.36 -42 133 C-41.34 133 -40.68 133 -40 133 C-39.67 132.01 -39.34 131.02 -39 130 C-38.34 130 -37.68 130 -37 130 C-36.67 128.68 -36.34 127.36 -36 126 C-35.34 126 -34.68 126 -34 126 C-33.7421875 125.27296875 -33.484375 124.5459375 -33.21875 123.796875 C-31.9498436 120.8848975 -30.46772748 118.73467284 -28.5 116.25 C-27.8915625 115.47140625 -27.283125 114.6928125 -26.65625 113.890625 C-25 112 -25 112 -23 111 C-21.99083967 109.23408113 -21.99083967 109.23408113 -21 107 C-20 105 -19 103 -18 101 C-17.34 101 -16.68 101 -16 101 C-15.690625 99.824375 -15.690625 99.824375 -15.375 98.625 C-13.82598181 94.54122476 -11.75172746 91.11181949 -9.45703125 87.41015625 C-7.86471988 84.85519158 -7.86471988 84.85519158 -6.25 81.4375 C-5 79 -5 79 -3 78 C-2.61519853 76.34445878 -2.2932703 74.67418082 -2 73 C-1.37571981 70.88933842 -0.72831044 68.78543101 -0.0625 66.6875 C0.29199219 65.53765625 0.64648438 64.3878125 1.01171875 63.203125 C1.56852387 61.39846018 2.12992504 59.5951507 2.70703125 57.796875 C5.01580147 49.89058272 5.16932862 40.63520076 2 33 C-1.13101597 27.14522514 -1.13101597 27.14522514 -6 23 C-6 22.34 -6 21.68 -6 21 C-8.97 20.01 -11.94 19.02 -15 18 C-15 17.34 -15 16.68 -15 16 C-15.64066406 15.95101562 -16.28132813 15.90203125 -16.94140625 15.8515625 C-20.86856237 15.51210638 -24.47011592 15.16304126 -28.25 14 C-48.9869433 8.47014845 -73.70348777 12.32486479 -94.578125 15.73046875 C-95.37734375 15.81941406 -96.1765625 15.90835938 -97 16 C-98.81630955 14.18369045 -98.34345124 11.32946098 -98.5 8.875 C-98.82387243 4.2019835 -99.24763618 -0.37833653 -100 -5 C-67.1856923 -12.24967263 -31.22925258 -13.92930252 0 0 Z M-56.375 181.1875 C-57.24125 182.115625 -58.1075 183.04375 -59 184 C-60.0929424 184.90949344 -61.19710718 185.80568356 -62.3125 186.6875 C-63.6428125 187.8321875 -63.6428125 187.8321875 -65 189 C-65 189.66 -65 190.32 -65 191 C-65.99 191.33 -66.98 191.66 -68 192 C-68 192.66 -68 193.32 -68 194 C-68.99 194.33 -69.98 194.66 -71 195 C-71 195.66 -71 196.32 -71 197 C-72.485 197.495 -72.485 197.495 -74 198 C-74 198.66 -74 199.32 -74 200 C-75.485 200.495 -75.485 200.495 -77 201 C-77 201.66 -77 202.32 -77 203 C-77.58265625 203.268125 -78.1653125 203.53625 -78.765625 203.8125 C-81.02786601 205.01480991 -82.80576318 206.33825913 -84.75 208 C-85.36359375 208.515625 -85.9771875 209.03125 -86.609375 209.5625 C-88.23176376 210.90623252 -88.23176376 210.90623252 -88 213 C-88.85851562 213.38671875 -88.85851562 213.38671875 -89.734375 213.78125 C-92.21128995 215.11365942 -94.1341166 216.65056118 -96.25 218.5 C-96.95640625 219.1084375 -97.6628125 219.716875 -98.390625 220.34375 C-100.23229504 221.85416368 -100.23229504 221.85416368 -100 224 C-100.5775 224.0825 -101.155 224.165 -101.75 224.25 C-104.6539336 225.21797787 -106.03740604 226.68694284 -108 229 C-108 229.66 -108 230.32 -108 231 C-108.53625 231.2475 -109.0725 231.495 -109.625 231.75 C-113.89170325 233.99563329 -117.66283374 236.52378515 -121 240 C-122.05863893 240.85894735 -123.12151147 241.71269096 -124.1875 242.5625 C-125.115625 243.366875 -126.04375 244.17125 -127 245 C-127 245.66 -127 246.32 -127 247 C-128.2065625 247.4021875 -128.2065625 247.4021875 -129.4375 247.8125 C-130.7059375 248.4003125 -130.7059375 248.4003125 -132 249 C-132.33 249.99 -132.66 250.98 -133 252 C-135.5625 253.1875 -135.5625 253.1875 -138 254 C-138 254.66 -138 255.32 -138 256 C-138.66 256 -139.32 256 -140 256 C-140 256.66 -140 257.32 -140 258 C-139.195625 258.268125 -138.39125 258.53625 -137.5625 258.8125 C-136.716875 259.204375 -135.87125 259.59625 -135 260 C-134.67 260.99 -134.34 261.98 -134 263 C-132.44152856 264.65899675 -132.44152856 264.65899675 -130.5625 266.1875 C-129.94503906 266.71730469 -129.32757812 267.24710937 -128.69140625 267.79296875 C-127.07499198 269.1936275 -127.07499198 269.1936275 -125 269 C-125 269.66 -125 270.32 -125 271 C-122.65618278 272.56254482 -120.32393736 273.85602784 -117.75 275 C-116 276 -116 276 -115 279 C-114.4225 279.268125 -113.845 279.53625 -113.25 279.8125 C-110.59901318 281.21163193 -109.20528753 283.08130178 -107.36328125 285.40234375 C-105.15906366 287.98550992 -102.70875866 289.95338234 -100 292 C-99.34 292 -98.68 292 -98 292 C-97.67 292.99 -97.34 293.98 -97 295 C-95.55072381 296.21870952 -94.09743372 297.43338784 -92.61328125 298.609375 C-90.08812485 300.78602313 -88.12493347 303.43918274 -86 306 C-84.34466005 307.34736973 -82.67987227 308.68334336 -81 310 C-80.34 310.99 -79.68 311.98 -79 313 C-78.34 313 -77.68 313 -77 313 C-76.67 313.99 -76.34 314.98 -76 316 C-74.12491838 318.2085766 -74.12491838 318.2085766 -72 320 C-71.34 320 -70.68 320 -70 320 C-70 320.66 -70 321.32 -70 322 C-68.54373428 323.47625203 -68.54373428 323.47625203 -66.6875 324.9375 C-63.06576345 327.90626099 -63.06576345 327.90626099 -61.76953125 329.75390625 C-59.273618 331.51151403 -57.29436533 331.0355209 -54.38671875 330.54296875 C-49.67003665 329.46994287 -45.093539 328.00680696 -40.5 326.5 C-39.40558594 326.14325195 -38.31117188 325.78650391 -37.18359375 325.41894531 C-7.83896081 315.74128078 20.75491325 304.57866838 45 285 C45.73992187 284.48179687 46.47984375 283.96359375 47.2421875 283.4296875 C47.82226562 282.95789063 48.40234375 282.48609375 49 282 C49 281.34 49 280.68 49 280 C49.66 280 50.32 280 51 280 C58.94429205 270.95526522 63.70166534 263.19343254 63.34765625 250.95703125 C62.4221318 243.08487384 58.04273297 236.90034062 53 231 C52.13181641 229.97132813 52.13181641 229.97132813 51.24609375 228.921875 C27.13297688 202.68529383 -16.32654172 187.17936863 -50 179 C-54.04778624 178.5483495 -54.04778624 178.5483495 -56.375 181.1875 Z " fill="#000000" transform="translate(870,238)"/>
<path d="M0 0 C11.88 0 23.76 0 36 0 C36.06784344 17.54222606 36.12305519 35.08433932 36.15543652 52.62666035 C36.17087449 60.77272059 36.19190495 68.91869325 36.22631836 77.06469727 C36.2563151 84.16864702 36.27559729 91.27253332 36.28226548 98.37654465 C36.28616043 102.13455104 36.29524923 105.89237592 36.31719017 109.65032387 C36.33771816 113.19535584 36.3438013 116.74013343 36.33932304 120.28521919 C36.34052783 122.19039296 36.35658391 124.09553971 36.3732605 126.00064087 C36.34674565 133.45519915 35.37001802 139.92447324 33 147 C32.34 147 31.68 147 31 147 C30.8453125 148.918125 30.8453125 148.918125 30.6875 150.875 C30.11866692 156.13670594 28.6625387 160.99147146 27 166 C26.34 166 25.68 166 25 166 C24.8453125 167.670625 24.8453125 167.670625 24.6875 169.375 C24.070803 174.43554302 22.57493852 179.16622643 21 184 C20.34 184 19.68 184 19 184 C18.8453125 185.8871875 18.8453125 185.8871875 18.6875 187.8125 C18.08409509 193.3851218 16.59309067 198.63960058 15 204 C14.34 204 13.68 204 13 204 C12.67 205.98 12.34 207.96 12 210 C19.92 210 27.84 210 36 210 C36 235.74 36 261.48 36 288 C20.49 288 4.98 288 -11 288 C-12.32 293.94 -13.64 299.88 -15 306 C-15.66 306 -16.32 306 -17 306 C-17.103125 306.9075 -17.20625 307.815 -17.3125 308.75 C-18.08543168 314.26282152 -19.59567091 319.62115462 -21 325 C-21.66 325 -22.32 325 -23 325 C-23.12375 325.969375 -23.2475 326.93875 -23.375 327.9375 C-23.99863809 332.34815777 -24.98746506 336.66477759 -26 341 C-26.66 341 -27.32 341 -28 341 C-28.12117188 341.71285156 -28.24234375 342.42570312 -28.3671875 343.16015625 C-31.19568595 359.32611279 -31.19568595 359.32611279 -36 363 C-39.9166697 364.42853176 -44.06491597 364.15518223 -48.17749023 364.16113281 C-48.99909637 364.16609772 -49.82070251 364.17106262 -50.66720581 364.17617798 C-53.38101035 364.19076518 -56.09475648 364.19759499 -58.80859375 364.203125 C-60.69661968 364.20887821 -62.5846456 364.21463592 -64.47267151 364.22039795 C-68.4294563 364.23089738 -72.38622082 364.23674733 -76.34301758 364.24023438 C-81.41170251 364.24572437 -86.48011954 364.26976763 -91.54872036 364.29820633 C-95.44778731 364.31683149 -99.34678961 364.32203819 -103.24589729 364.32357025 C-105.11459891 364.32659634 -106.9832994 364.33462339 -108.85195732 364.34775543 C-111.46588436 364.36481738 -114.07915505 364.36293569 -116.69311523 364.35644531 C-117.46366745 364.3656601 -118.23421967 364.37487488 -119.02812195 364.3843689 C-124.77743613 364.33966835 -127.97474385 363.02525615 -132 359 C-133.27823224 353.58591685 -132.71688561 349.82645422 -131.0625 344.5625 C-130.68222656 343.32628906 -130.30195313 342.09007812 -129.91015625 340.81640625 C-129.60980469 339.88699219 -129.30945313 338.95757813 -129 338 C-128.34 338 -127.68 338 -127 338 C-126.87882812 337.34773438 -126.75765625 336.69546875 -126.6328125 336.0234375 C-125.71056011 331.21353658 -124.69832723 326.60974535 -123 322 C-122.34 322 -121.68 322 -121 322 C-120.896875 320.865625 -120.79375 319.73125 -120.6875 318.5625 C-120.10889499 313.80602649 -118.64926303 309.48101654 -117 305 C-116.34 305 -115.68 305 -115 305 C-114.896875 304.236875 -114.79375 303.47375 -114.6875 302.6875 C-113.75866958 297.70559136 -112.37883557 292.87362005 -111 288 C-110.34 288 -109.68 288 -109 288 C-107.68 282.72 -106.36 277.44 -105 272 C-104.34 272 -103.68 272 -103 272 C-102.80083984 270.84371094 -102.80083984 270.84371094 -102.59765625 269.6640625 C-102.42105469 268.66117188 -102.24445313 267.65828125 -102.0625 266.625 C-101.80146484 265.12839844 -101.80146484 265.12839844 -101.53515625 263.6015625 C-101 261 -101 261 -100 259 C-99.34 259 -98.68 259 -98 259 C-97.896875 258.05125 -97.79375 257.1025 -97.6875 256.125 C-97.0089081 251.26508446 -95.4914524 246.66196126 -94 242 C-93.34 242 -92.68 242 -92 242 C-91.87882812 241.443125 -91.75765625 240.88625 -91.6328125 240.3125 C-90.50669922 235.18435338 -89.29514693 230.08807722 -88 225 C-87.34 225 -86.68 225 -86 225 C-85.81824219 224.14728516 -85.81824219 224.14728516 -85.6328125 223.27734375 C-84.58677946 218.45754536 -83.40795516 213.7267066 -82 209 C-81.34 209 -80.68 209 -80 209 C-79.87882812 208.34773437 -79.75765625 207.69546875 -79.6328125 207.0234375 C-78.71056011 202.21353658 -77.69832723 197.60974535 -76 193 C-75.34 193 -74.68 193 -74 193 C-73.8453125 191.576875 -73.8453125 191.576875 -73.6875 190.125 C-73.0089081 185.26508446 -71.4914524 180.66196126 -70 176 C-69.34 176 -68.68 176 -68 176 C-67.896875 175.05125 -67.79375 174.1025 -67.6875 173.125 C-67.0089081 168.26508446 -65.4914524 163.66196126 -64 159 C-63.34 159 -62.68 159 -62 159 C-61.87882812 158.443125 -61.75765625 157.88625 -61.6328125 157.3125 C-60.50669922 152.18435338 -59.29514693 147.08807722 -58 142 C-57.34 142 -56.68 142 -56 142 C-55.79503906 141.08476562 -55.59007812 140.16953125 -55.37890625 139.2265625 C-55.10949219 138.03804687 -54.84007812 136.84953125 -54.5625 135.625 C-54.29566406 134.44164062 -54.02882813 133.25828125 -53.75390625 132.0390625 C-53 129 -53 129 -52 127 C-51.34 127 -50.68 127 -50 127 C-49.896875 125.865625 -49.79375 124.73125 -49.6875 123.5625 C-49.10889499 118.80602649 -47.64926303 114.48101654 -46 110 C-45.34 110 -44.68 110 -44 110 C-43.896875 109.05125 -43.79375 108.1025 -43.6875 107.125 C-43.0089081 102.26508446 -41.4914524 97.66196126 -40 93 C-39.34 93 -38.68 93 -38 93 C-37.896875 92.236875 -37.79375 91.47375 -37.6875 90.6875 C-36.75866958 85.70559136 -35.37883557 80.87362005 -34 76 C-33.34 76 -32.68 76 -32 76 C-31.79503906 75.08476562 -31.59007812 74.16953125 -31.37890625 73.2265625 C-31.10949219 72.03804688 -30.84007812 70.84953125 -30.5625 69.625 C-30.29566406 68.44164062 -30.02882813 67.25828125 -29.75390625 66.0390625 C-29 63 -29 63 -28 61 C-27.34 61 -26.68 61 -26 61 C-25.814375 59.205625 -25.814375 59.205625 -25.625 57.375 C-25.17674946 53.72403187 -24.29553163 50.45475101 -23 47 C-22.34 47 -21.68 47 -21 47 C-20.87882812 46.27554688 -20.75765625 45.55109375 -20.6328125 44.8046875 C-19.75060421 39.71502427 -18.83557653 34.85116654 -17 30 C-16.34 30 -15.68 30 -15 30 C-14.87882812 29.43152344 -14.75765625 28.86304688 -14.6328125 28.27734375 C-13.58677946 23.45754536 -12.40795516 18.7267066 -11 14 C-10.34 14 -9.68 14 -9 14 C-8.896875 13.113125 -8.79375 12.22625 -8.6875 11.3125 C-7.9677964 7.84483722 -7.20860521 5.76075651 -5 3 C-2.3125 2.1875 -2.3125 2.1875 0 2 C0 1.34 0 0.68 0 0 Z " fill="#E60000" transform="translate(452,305)"/>
<path d="M0 0 C26.4 0 52.8 0 80 0 C80 0.99 80 1.98 80 3 C80.66 3 81.32 3 82 3 C83.22690072 7.52419641 84.13191623 11.29223955 84 16 C83.31035156 16.21914063 82.62070312 16.43828125 81.91015625 16.6640625 C75.88408068 18.69755302 70.9173716 21.07302328 65.77734375 24.828125 C64 26 64 26 62 26 C64.63907328 29.09620904 64.63907328 29.09620904 68.34765625 30.45703125 C71.32559847 31.06665418 73.1908198 32.12751321 75.75 33.75 C79.11378508 35.83665293 82.48272269 37.87940274 85.9375 39.8125 C86.64777344 40.21082031 87.35804688 40.60914063 88.08984375 41.01953125 C90.12939961 42.12751335 90.12939961 42.12751335 93 43 C93 43.66 93 44.32 93 45 C93.66 45 94.32 45 95 45 C95.50636607 46.74816858 96.00484619 48.49862263 96.5 50.25 C96.7784375 51.22453125 97.056875 52.1990625 97.34375 53.203125 C98 56 98 56 98 60 C98.66 60 99.32 60 100 60 C100.99 64.455 100.99 64.455 102 69 C98.51633331 70.21171015 97.17244159 70.07399163 93.72265625 68.59375 C92.49499397 67.90930855 91.27526148 67.21050992 90.0625 66.5 C88.73011693 65.7535097 87.39675922 65.00875672 86.0625 64.265625 C85.38832031 63.88599609 84.71414063 63.50636719 84.01953125 63.11523438 C80.91320522 61.39984543 77.74397951 59.82035122 74.5625 58.25 C72.84933594 57.39921875 72.84933594 57.39921875 71.1015625 56.53125 C69.24270797 55.61352837 67.38346388 54.69659421 65.5234375 53.78125 C61.91050002 51.99507866 58.43976131 50.09741543 55 48 C52.76130613 46.7425932 50.51603943 45.50443548 48.25 44.296875 C46 43 46 43 44.25 41.578125 C42.44084545 40.03454452 42.44084545 40.03454452 39 39 C34.99755039 40.41494127 31.59150883 42.76780907 28 45 C25.70048139 46.1920493 23.38733478 47.35811095 21.0625 48.5 C19.88300781 49.08523438 18.70351563 49.67046875 17.48828125 50.2734375 C16.33714844 50.84320312 15.18601562 51.41296875 14 52 C11.91615928 53.04065127 9.83279832 54.082264 7.75 55.125 C-3.125 60.5625 -3.125 60.5625 -5.5390625 61.76171875 C-7.29216266 62.64383423 -9.03607754 63.54430552 -10.7734375 64.45703125 C-11.67320312 64.92496094 -12.57296875 65.39289063 -13.5 65.875 C-14.3146875 66.30554688 -15.129375 66.73609375 -15.96875 67.1796875 C-16.97421875 67.58574219 -16.97421875 67.58574219 -18 68 C-18.66 67.67 -19.32 67.34 -20 67 C-19.31195504 60.80759538 -17.71951285 54.98044406 -16 49 C-15.34 49 -14.68 49 -14 49 C-14.061875 47.453125 -14.061875 47.453125 -14.125 45.875 C-13.73598388 42.96916746 -13.19271625 42.15751531 -10.8828125 40.26953125 C-6.71368223 37.7643417 -2.51428771 35.79355539 2 34 C2.78375 33.525625 3.5675 33.05125 4.375 32.5625 C7 31 7 31 10.625 29.5 C13.51713427 28.21460699 15.05416804 27.40367478 17 25 C15.35 24.67 13.7 24.34 12 24 C12 23.34 12 22.68 12 22 C11.195625 21.7525 10.39125 21.505 9.5625 21.25 C5.25675857 19.73921353 1.14635993 17.89811144 -3 16 C-2.30157654 10.52901623 -1.20795667 5.435805 0 0 Z " fill="#000000" transform="translate(457,609)"/>
<path d="M0 0 C6.18891835 -0.09969757 12.3773579 -0.17185698 18.56689453 -0.21972656 C20.66756343 -0.23970531 22.7681777 -0.26689789 24.86865234 -0.30175781 C49.33890407 -0.69737767 49.33890407 -0.69737767 59.58496094 5.58496094 C62.20431186 7.11971204 64.64454449 7.61990214 67.58203125 8.28125 C71.77263272 9.52692152 75.61947215 11.5419792 79.55859375 13.41796875 C83.97063571 15.44620597 88.47498946 17.14668063 93.01953125 18.8515625 C95.54181086 19.82345005 97.98522266 20.86678496 100.4375 22 C108.34593337 25.58808551 116.42140314 28.61262584 125 30 C126.74486567 30.55720598 128.47512513 31.16226386 130.1875 31.8125 C131.14140625 32.16828125 132.0953125 32.5240625 133.078125 32.890625 C134.96450458 33.60684399 136.84998994 34.32542472 138.734375 35.046875 C144.46767021 37.20100326 150.16885227 38.84947871 156.12109375 40.28515625 C158.83506998 40.95904723 161.51350764 41.68212278 164.1875 42.5 C164.90292969 42.7165625 165.61835937 42.933125 166.35546875 43.15625 C168 44 168 44 169 47 C168.92993164 48.99291992 168.92993164 48.99291992 168.66015625 51.23046875 C168.56669922 52.03291016 168.47324219 52.83535156 168.37695312 53.66210938 C168.27318359 54.49548828 168.16941406 55.32886719 168.0625 56.1875 C167.96259766 57.03248047 167.86269531 57.87746094 167.75976562 58.74804688 C167.51242892 60.83274197 167.25698959 62.91647284 167 65 C160.69178698 65 154.63691384 62.97283426 148.72265625 60.91796875 C146.52917826 60.17841735 144.33384226 59.47889017 142.12109375 58.80078125 C141.42314697 58.58655518 140.7252002 58.3723291 140.00610352 58.15161133 C138.62074294 57.72802015 137.2345517 57.30713291 135.84741211 56.8894043 C132.50168553 55.86188551 129.32041742 54.73241003 126.1328125 53.28125 C125.09898437 52.8584375 124.06515625 52.435625 123 52 C122.01 52.495 122.01 52.495 121 53 C113.85847488 51.20880315 107.03282486 48.24052967 100.27734375 45.35546875 C96.4880154 43.78824952 92.65874681 42.35766642 88.8125 40.9375 C74.38313595 35.5887573 74.38313595 35.5887573 69 32 C67.33797603 31.64423997 65.67067463 31.31262624 64 31 C57.52399246 28.71624237 51.24607875 25.8444584 45 23 C43.91847656 22.51144531 42.83695313 22.02289062 41.72265625 21.51953125 C40.57667969 20.99746094 39.43070313 20.47539063 38.25 19.9375 C37.18265625 19.45152344 36.1153125 18.96554687 35.015625 18.46484375 C32.23293457 17.11314827 29.64191171 15.60385871 27 14 C25.30298514 13.26355959 23.60511173 12.52857542 21.89453125 11.82421875 C19.83568088 10.92851271 17.86541936 9.91331669 15.875 8.875 C12.89937424 7.35565352 10.28789459 6.62203411 7 6 C3.58275792 4.25164359 2.16107128 3.24160692 0 0 Z " fill="#000000" transform="translate(571,685)"/>
<path d="M0 0 C0.04898438 0.92941406 0.09796875 1.85882813 0.1484375 2.81640625 C0.69677146 12.07660933 0.69677146 12.07660933 3 21 C1.76636719 21.36351562 1.76636719 21.36351562 0.5078125 21.734375 C-5.65471482 23.58455641 -11.66766903 25.53988676 -17.5859375 28.0703125 C-20.6716623 29.25866606 -23.81683254 30.10653891 -27 31 C-35.2830554 33.60272413 -43.3240315 36.45645086 -51.3046875 39.8828125 C-53.68485128 40.86937314 -56.04702682 41.71751035 -58.5 42.5 C-63.12704342 43.98098858 -67.55900184 45.85442313 -72.03125 47.74609375 C-77.34146507 49.9889609 -82.68639653 52.14007659 -88.08984375 54.1484375 C-94.62902626 56.58993965 -100.8259191 59.3348643 -107.03125 62.52734375 C-110.95156204 64.47202485 -114.96775533 66.11708209 -119.01953125 67.765625 C-123.73621544 69.7190617 -128.36710786 71.85683139 -133 74 C-135.61407872 68.63809899 -137.49228528 63.96564796 -138 58 C-138.66 58 -139.32 58 -140 58 C-140 55.75 -140 55.75 -139 53 C-133.92348757 49.89768685 -128.53872406 48.10377223 -122.9453125 46.140625 C-118.72047476 44.50448094 -114.74263897 42.45641327 -110.7265625 40.3671875 C-108.18487639 39.09270306 -105.65346204 38.01666829 -103 37 C-96.35121458 34.41662647 -96.35121458 34.41662647 -89.875 31.4375 C-86.34933031 29.67466516 -82.69191723 28.36387974 -79 27 C-77.70147289 26.51265036 -76.40328642 26.02439199 -75.10546875 25.53515625 C-69.12229599 23.28562794 -63.13959029 21.03956806 -57.125 18.875 C-53.73831775 17.65357362 -50.3948238 16.36250324 -47.0625 15 C-39.76879253 12.0524637 -32.29320618 9.65881225 -24.75 7.4375 C-21.10274557 6.36135635 -17.56407424 5.12484254 -14.015625 3.76171875 C-11.75185035 2.90622251 -9.47624168 2.09879351 -7.1875 1.3125 C-6.45917969 1.06113281 -5.73085938 0.80976563 -4.98046875 0.55078125 C-3 0 -3 0 0 0 Z " fill="#000000" transform="translate(711,247)"/>
<path d="M0 0 C6.47750306 4.28453236 11.0416529 9.72098663 12.99609375 17.3203125 C14.15267009 26.01645722 13.19426793 33.14128068 7.99609375 40.3203125 C2.64944575 46.4689577 -3.20288442 49.50326717 -11.22265625 50.6328125 C-18.78736486 51.05899327 -25.09995395 48.23801685 -31.31640625 44.1328125 C-37.7596129 37.38992182 -40.41263111 30.18572528 -40.27734375 20.97265625 C-39.46461345 13.08917231 -34.84724282 6.46663079 -29.00390625 1.3203125 C-20.60785297 -4.51256209 -8.97194498 -4.70821333 0 0 Z " fill="#000000" transform="translate(755.00390625,227.6796875)"/>
<path d="M0 0 C6.42505411 3.71318062 10.80297471 8.67024774 13.08984375 15.77734375 C14.83614742 23.75838448 13.60332252 30.85417581 9.5625 37.9375 C4.61527037 44.45216871 -1.15548622 47.59832293 -9.25 48.8125 C-16.78814734 49.33868327 -22.96327508 47.49686271 -28.8125 42.6875 C-34.4980713 37.26610676 -37.54420372 31.2897402 -37.8125 23.375 C-37.72188946 15.87244693 -35.57089784 10.40547009 -30.53515625 4.83203125 C-22.15727745 -2.96695381 -10.55015722 -4.85211467 0 0 Z " fill="#E70000" transform="translate(61.4375,471.0625)"/>
<path d="M0 0 C4.70230045 3.70317618 8.79253079 7.97333951 10 14 C10.98207645 23.04834484 10.45069399 30.50702067 5 38 C0.17701259 43.63679174 -5.74931205 46.2743771 -13.03515625 47.28125 C-20.31986848 47.6288307 -26.67861161 45.3906876 -32.3125 40.8125 C-38.49381981 34.85326354 -40.22586399 30.13528432 -40.5 21.5 C-40.19958478 12.3145772 -38.24071955 7.88371613 -31.625 1.625 C-22.50497256 -5.91343435 -10.03842921 -6.55099027 0 0 Z " fill="#404040" transform="translate(784,724)"/>
<path d="M0 0 C0 0.33 0 0.66 0 1 C-0.6290625 1.13535156 -1.258125 1.27070313 -1.90625 1.41015625 C-10.07781154 3.4653532 -15.96471967 7.24986607 -20.375 14.5625 C-21.84667795 17.6756649 -23.03350418 20.69780595 -24 24 C-24.33 24 -24.66 24 -25 24 C-24.55581113 15.70847445 -21.70599941 10.23724336 -15.5625 4.625 C-10.67006413 0.72799481 -6.22162558 -0.29626788 0 0 Z " fill="#FE0A00" transform="translate(49,469)"/>
</svg>
